<svg xmlns="http://www.w3.org/2000/svg" viewBox="0 0 414 591">
  <defs>
    <style>
      .cls-1 {
        fill: rgba(56,69,80,0.9);
      }

      .cls-2 {
        fill: none;
        stroke: #778390;
        stroke-width: 2px;
      }
    </style>
  </defs>
  <g id="Group_10954" data-name="Group 10954" transform="translate(2471 7333)">
    <rect id="Rectangle_11671" data-name="Rectangle 11671" class="cls-1" width="414" height="591" transform="translate(-2471 -7333)"/>
    <path id="Path_3388" data-name="Path 3388" class="cls-2" d="M33.083,25.5l-8.507,9.452H9.452A9.48,9.48,0,0,0,0,44.4v56.714a9.48,9.48,0,0,0,9.452,9.452H85.07a9.48,9.48,0,0,0,9.452-9.452V44.4a9.48,9.48,0,0,0-9.452-9.452H69.947L61.44,25.5ZM47.261,92.962c-11.7,0-20.2-8.286-20.2-20.2s8.312-20.2,20.2-20.2,20.2,8.22,20.2,20.2S58.962,92.962,47.261,92.962Z" transform="translate(-2311.482 -7105.634)"/>
  </g>
</svg>
